HIERARCHY
ROOT Hips
{
  OFFSET 5.80788e-005 67.184 3.4734
  CHANNELS 6 Xposition Yposition Zposition Zrotation Xrotation Yrotation
  JOINT Chest
  {
    OFFSET 0 8.7983 -4.7612
    CHANNELS 6 Xposition Yposition Zposition Zrotation Xrotation Yrotation
    JOINT Chest2
    {
      OFFSET 0 8.0291 0.4195
      CHANNELS 6 Xposition Yposition Zposition Zrotation Xrotation Yrotation
      JOINT Chest3
      {
        OFFSET 0 9.9351 -2.2114
        CHANNELS 6 Xposition Yposition Zposition Zrotation Xrotation Yrotation
        JOINT Neck
        {
          OFFSET 0 22.3885 -0.4656
          CHANNELS 6 Xposition Yposition Zposition Zrotation Xrotation Yrotation
          JOINT Head
          {
            OFFSET -0.0001 12.643 3.4389
            CHANNELS 6 Xposition Yposition Zposition Zrotation Xrotation Yrotation
            End Site
            {
              OFFSET 0.0001 17.6655 0.5274
            }
          }
        }
        JOINT LeftCollar
        {
          OFFSET 2.2603 21.606 7.4023
          CHANNELS 6 Xposition Yposition Zposition Zrotation Xrotation Yrotation
          JOINT LeftShoulder
          {
            OFFSET 13.5163 -1.1332 -5.0146
            CHANNELS 6 Xposition Yposition Zposition Zrotation Xrotation Yrotation
            JOINT LeftElbow
            {
              OFFSET -0.0995 -28.05 -0.2431
              CHANNELS 6 Xposition Yposition Zposition Zrotation Xrotation Yrotation
              JOINT LeftWrist
              {
                OFFSET 0.0679 -23.3996 -0.1402
                CHANNELS 6 Xposition Yposition Zposition Zrotation Xrotation Yrotation
                JOINT LeftFinger1
                {
                  OFFSET 0.7932 -9.069 2.5189
                  CHANNELS 6 Xposition Yposition Zposition Zrotation Xrotation Yrotation
                  JOINT LeftFinger11
                  {
                    OFFSET -0.8272 -3.3923 0.5977
                    CHANNELS 6 Xposition Yposition Zposition Zrotation Xrotation Yrotation
                    JOINT LeftFinger12
                    {
                      OFFSET -0.5649 -2.3158 0.4082
                      CHANNELS 6 Xposition Yposition Zposition Zrotation Xrotation Yrotation
                      End Site
                      {
                        OFFSET -0.4919 -1.6479 0.2673
                      }
                    }
                  }
                }
                JOINT LeftFinger2
                {
                  OFFSET 0.9159 -9.2044 0.2193
                  CHANNELS 6 Xposition Yposition Zposition Zrotation Xrotation Yrotation
                  JOINT LeftFinger21
                  {
                    OFFSET 0.0117 -4.1944 -0.0248
                    CHANNELS 6 Xposition Yposition Zposition Zrotation Xrotation Yrotation
                    JOINT LeftFinger22
                    {
                      OFFSET 0.0071 -2.3249 -0.0142
                      CHANNELS 6 Xposition Yposition Zposition Zrotation Xrotation Yrotation
                      End Site
                      {
                        OFFSET -0.1475 -2.0882 0.0028
                      }
                    }
                  }
                }
                JOINT LeftFinger3
                {
                  OFFSET 0.6113 -8.7231 -2.0637
                  CHANNELS 6 Xposition Yposition Zposition Zrotation Xrotation Yrotation
                  JOINT LeftFinger31
                  {
                    OFFSET -0.1927 -3.8059 -0.2383
                    CHANNELS 6 Xposition Yposition Zposition Zrotation Xrotation Yrotation
                    JOINT LeftFinger32
                    {
                      OFFSET -0.1091 -2.1688 -0.1362
                      CHANNELS 6 Xposition Yposition Zposition Zrotation Xrotation Yrotation
                      End Site
                      {
                        OFFSET -0.2358 -1.9176 -0.0906
                      }
                    }
                  }
                }
                JOINT LeftFinger4
                {
                  OFFSET -0.6151 -8.0947 -3.5641
                  CHANNELS 6 Xposition Yposition Zposition Zrotation Xrotation Yrotation
                  JOINT LeftFinger41
                  {
                    OFFSET -0.4882 -2.341 -0.6462
                    CHANNELS 6 Xposition Yposition Zposition Zrotation Xrotation Yrotation
                    JOINT LeftFinger42
                    {
                      OFFSET -0.3575 -1.7167 -0.4742
                      CHANNELS 6 Xposition Yposition Zposition Zrotation Xrotation Yrotation
                      End Site
                      {
                        OFFSET -0.4187 -1.5237 -0.3496
                      }
                    }
                  }
                }
                JOINT LeftFinger0
                {
                  OFFSET -1.42 -1.8761 1.4223
                  CHANNELS 6 Xposition Yposition Zposition Zrotation Xrotation Yrotation
                  JOINT LeftFinger01
                  {
                    OFFSET -1.1471 -3.4929 2.6334
                    CHANNELS 6 Xposition Yposition Zposition Zrotation Xrotation Yrotation
                    JOINT LeftFinger02
                    {
                      OFFSET -0.823 -2.3 1.6571
                      CHANNELS 6 Xposition Yposition Zposition Zrotation Xrotation Yrotation
                      End Site
                      {
                        OFFSET -0.5822 -1.6914 1.1582
                      }
                    }
                  }
                }
              }
            }
          }
        }
        JOINT RightCollar
        {
          OFFSET -2.2603 21.606 7.4023
          CHANNELS 6 Xposition Yposition Zposition Zrotation Xrotation Yrotation
          JOINT RightShoulder
          {
            OFFSET -13.5187 -1.1334 -5.0155
            CHANNELS 6 Xposition Yposition Zposition Zrotation Xrotation Yrotation
            JOINT RightElbow
            {
              OFFSET 0.0994 -28.0499 -0.2431
              CHANNELS 6 Xposition Yposition Zposition Zrotation Xrotation Yrotation
              JOINT RightWrist
              {
                OFFSET -0.0679 -23.3996 -0.1402
                CHANNELS 6 Xposition Yposition Zposition Zrotation Xrotation Yrotation
                JOINT RightFinger1
                {
                  OFFSET -0.7932 -9.0691 2.5189
                  CHANNELS 6 Xposition Yposition Zposition Zrotation Xrotation Yrotation
                  JOINT RightFinger11
                  {
                    OFFSET 0.8272 -3.3923 0.5977
                    CHANNELS 6 Xposition Yposition Zposition Zrotation Xrotation Yrotation
                    JOINT RightFinger12
                    {
                      OFFSET 0.565 -2.3158 0.4082
                      CHANNELS 6 Xposition Yposition Zposition Zrotation Xrotation Yrotation
                      End Site
                      {
                        OFFSET 0.4919 -1.6479 0.2673
                      }
                    }
                  }
                }
                JOINT RightFinger2
                {
                  OFFSET -0.916 -9.2044 0.2193
                  CHANNELS 6 Xposition Yposition Zposition Zrotation Xrotation Yrotation
                  JOINT RightFinger21
                  {
                    OFFSET -0.0117 -4.1944 -0.0248
                    CHANNELS 6 Xposition Yposition Zposition Zrotation Xrotation Yrotation
                    JOINT RightFinger22
                    {
                      OFFSET -0.0071 -2.3249 -0.0142
                      CHANNELS 6 Xposition Yposition Zposition Zrotation Xrotation Yrotation
                      End Site
                      {
                        OFFSET 0.1475 -2.0882 0.0028
                      }
                    }
                  }
                }
                JOINT RightFinger3
                {
                  OFFSET -0.6113 -8.7231 -2.0637
                  CHANNELS 6 Xposition Yposition Zposition Zrotation Xrotation Yrotation
                  JOINT RightFinger31
                  {
                    OFFSET 0.1927 -3.8059 -0.2383
                    CHANNELS 6 Xposition Yposition Zposition Zrotation Xrotation Yrotation
                    JOINT RightFinger32
                    {
                      OFFSET 0.1091 -2.1688 -0.1362
                      CHANNELS 6 Xposition Yposition Zposition Zrotation Xrotation Yrotation
                      End Site
                      {
                        OFFSET 0.2358 -1.9176 -0.0906
                      }
                    }
                  }
                }
                JOINT RightFinger4
                {
                  OFFSET 0.6151 -8.0947 -3.564
                  CHANNELS 6 Xposition Yposition Zposition Zrotation Xrotation Yrotation
                  JOINT RightFinger41
                  {
                    OFFSET 0.4882 -2.341 -0.6462
                    CHANNELS 6 Xposition Yposition Zposition Zrotation Xrotation Yrotation
                    JOINT RightFinger42
                    {
                      OFFSET 0.3574 -1.7166 -0.4742
                      CHANNELS 6 Xposition Yposition Zposition Zrotation Xrotation Yrotation
                      End Site
                      {
                        OFFSET 0.4187 -1.5237 -0.3496
                      }
                    }
                  }
                }
                JOINT RightFinger0
                {
                  OFFSET 1.4199 -1.8761 1.4221
                  CHANNELS 6 Xposition Yposition Zposition Zrotation Xrotation Yrotation
                  JOINT RightFinger01
                  {
                    OFFSET 1.1472 -3.4929 2.6336
                    CHANNELS 6 Xposition Yposition Zposition Zrotation Xrotation Yrotation
                    JOINT RightFinger02
                    {
                      OFFSET 0.8229 -2.3 1.6571
                      CHANNELS 6 Xposition Yposition Zposition Zrotation Xrotation Yrotation
                      End Site
                      {
                        OFFSET 0.5822 -1.6914 1.1582
                      }
                    }
                  }
                }
              }
            }
          }
        }
      }
    }
  }
  JOINT RightHip
  {
    OFFSET -9.412 3.9771 -0.7758
    CHANNELS 6 Xposition Yposition Zposition Zrotation Xrotation Yrotation
    JOINT RightKnee
    {
      OFFSET -0.7531 -40.938 0
      CHANNELS 6 Xposition Yposition Zposition Zrotation Xrotation Yrotation
      JOINT RightAnkle
      {
        OFFSET 0 -40.1986 0
        CHANNELS 6 Xposition Yposition Zposition Zrotation Xrotation Yrotation
        JOINT RightToe
        {
          OFFSET 0 -4.4182 9.239
          CHANNELS 6 Xposition Yposition Zposition Zrotation Xrotation Yrotation
          End Site
          {
            OFFSET 0 0 6.1981
          }
        }
      }
    }
  }
  JOINT LeftHip
  {
    OFFSET 9.4119 3.9773 -0.7758
    CHANNELS 6 Xposition Yposition Zposition Zrotation Xrotation Yrotation
    JOINT LeftKnee
    {
      OFFSET 0.7532 -40.9383 0
      CHANNELS 6 Xposition Yposition Zposition Zrotation Xrotation Yrotation
      JOINT LeftAnkle
      {
        OFFSET 0 -40.1986 0
        CHANNELS 6 Xposition Yposition Zposition Zrotation Xrotation Yrotation
        JOINT LeftToe
        {
          OFFSET 0 -4.4182 9.239
          CHANNELS 6 Xposition Yposition Zposition Zrotation Xrotation Yrotation
          End Site
          {
            OFFSET 0 0 6.1981
          }
        }
      }
    }
  }
}
MOTION
Frames:	4
Frame Time:	0.0333333
1.63311 30.3249 1.298 2.97316e-008 14.7518 -6.9177e-008 0 8.7983 -4.7612 -0.123502 6.63722 -0.409822 0 8.0291 0.4195 -0.200873 13.2751 -0.813407 -2.22045e-016 9.9351 -2.2114 -0.200874 13.2752 -0.813409 -1.11022e-016 22.3885 -0.4656 10.6295 -9.34929 1.53643 -0.0001 12.643 3.4389 -1.85998e-006 -2.56072 -3.93499e-007 2.2603 21.606 7.4023 -17.7043 -24.7686 -42.5897 13.5163 -1.1332 -5.0146 44.6434 0.267266 20.8021 -0.0995 -28.05 -0.2431 -69.2031 -20.9952 -30.6369 0.0679 -23.3996 -0.1402 69.7865 13.3446 -15.1554 0.7932 -9.069 2.5189 -3.18055e-015 6.36111e-015 3.18055e-015 -0.8272 -3.3923 0.5977 -7.55275e-007 2.31675e-006 -1.4294e-006 -0.5649 -2.3158 0.4082 -3.18055e-015 1.46816e-006 -0 0.9159 -9.2044 0.2193 -3.18055e-015 6.36111e-015 3.18055e-015 0.0117 -4.1944 -0.0248 -0.0128088 0.00232519 8.89572e-005 0.0071 -2.3249 -0.0142 -7.32964e-008 -1.48938e-006 -3.30797e-006 0.6113 -8.7231 -2.0637 -3.18055e-015 6.36111e-015 3.18055e-015 -0.1927 -3.8059 -0.2383 -0.0160853 0.00300042 0.000859835 -0.1091 -2.1688 -0.1362 1.59028e-015 -3.18055e-015 -0 -0.6151 -8.0947 -3.5641 -3.18055e-015 6.36111e-015 3.18055e-015 -0.4882 -2.341 -0.6462 -0.0126014 0.00312439 0.00282601 -0.3575 -1.7167 -0.4742 3.18055e-015 1.46839e-006 -3.18055e-015 -1.42 -1.8761 1.4223 -3.18055e-015 6.36111e-015 3.18055e-015 -1.1471 -3.4929 2.6334 -7.55275e-007 2.31675e-006 -1.4294e-006 -0.823 -2.3 1.6571 -3.18055e-015 1.46816e-006 -0 -2.2603 21.606 7.4023 15.5247 -25.7471 35.8663 -13.5187 -1.1334 -5.0155 -43.4133 -3.26954 -16.9058 0.0994 -28.0499 -0.2431 65.9509 -20.7275 30.0926 -0.0679 -23.3996 -0.1402 -62.1111 12.0451 12.3184 -0.7932 -9.0691 2.5189 -4.77083e-015 6.36111e-015 -0 0.8272 -3.3923 0.5977 -2.55998e-006 -2.83285e-006 -5.50645e-006 0.565 -2.3158 0.4082 4.03389e-006 1.03649e-005 -3.41564e-006 -0.916 -9.2044 0.2193 -4.77083e-015 6.36111e-015 -0 -0.0117 -4.1944 -0.0248 0.0129612 0.00232227 -8.42151e-005 -0.0071 -2.3249 -0.0142 -1.20029e-005 -6.40183e-006 8.24369e-007 -0.6113 -8.7231 -2.0637 -4.77083e-015 6.36111e-015 -0 0.1927 -3.8059 -0.2383 0.0163451 0.0030396 -0.000880391 0.1091 -2.1688 -0.1362 -1.65978e-005 6.20576e-006 2.64925e-009 0.6151 -8.0947 -3.564 -4.77083e-015 6.36111e-015 -0 0.4882 -2.341 -0.6462 0.0146409 0.00369456 -0.0032805 0.3574 -1.7166 -0.4742 -2.8756e-006 1.43531e-006 8.64641e-007 1.4199 -1.8761 1.4221 -4.77083e-015 6.36111e-015 -0 1.1472 -3.4929 2.6336 -2.55998e-006 -2.83285e-006 -5.50645e-006 0.8229 -2.3 1.6571 4.03389e-006 1.03649e-005 -3.41564e-006 -9.412 3.9771 -0.7758 -7.37194 -15.7186 -16.2006 -0.7531 -40.938 0 -169.38 82.1498 167.091 0 -40.1986 0 20.3453 46.5611 -28.3344 8.88178e-016 -4.4182 9.239 -4.13738e-007 -2.09713e-008 -7.35704e-007 9.4119 3.9773 -0.7758 7.22779 -15.6322 16.0464 0.7532 -40.9383 0 170.104 82.2935 -167.758 -1.77636e-015 -40.1986 0 -19.7791 45.6923 27.8342 0 -4.4182 9.239 2.90468e-006 3.94834e-006 -1.00438e-006 
1.63311 30.3038 1.04645 -5.56363e-010 15.506 7.18402e-008 -2.22045e-016 8.7983 -4.7612 -0.119731 6.36568 -0.41236 0 8.0291 0.4195 -0.194848 12.7321 -0.818899 -1.11022e-016 9.9351 -2.2114 -0.194848 12.7321 -0.818902 -2.77556e-016 22.3885 -0.4656 10.5723 -9.77707 1.60204 -0.0001 12.643 3.4389 2.34308e-006 -3.76317 -1.99098e-007 2.2603 21.606 7.4023 -17.8416 -24.484 -42.6443 13.5163 -1.1332 -5.0146 44.6434 0.267333 20.8021 -0.0995 -28.05 -0.2431 -68.6223 -20.9501 -30.3967 0.0679 -23.3996 -0.1402 69.3489 13.5502 -15.0592 0.7932 -9.069 2.5189 -7.18883e-006 1.57948e-006 4.14291e-006 -0.8272 -3.3923 0.5977 -1.34543e-005 3.72355e-006 -3.7649e-006 -0.5649 -2.3158 0.4082 -2.80508e-006 3.02433e-006 6.10401e-006 0.9159 -9.2044 0.2193 -7.18883e-006 1.57948e-006 4.14291e-006 0.0117 -4.1944 -0.0248 -0.0128345 0.00232365 8.76769e-005 0.0071 -2.3249 -0.0142 1.81284e-006 4.06728e-006 2.639e-006 0.6113 -8.7231 -2.0637 -7.18883e-006 1.57948e-006 4.14291e-006 -0.1927 -3.8059 -0.2383 -0.0160519 0.00299105 0.000850593 -0.1091 -2.1688 -0.1362 -5.67663e-006 5.91064e-006 8.89959e-006 -0.6151 -8.0947 -3.5641 -7.18883e-006 1.57948e-006 4.14291e-006 -0.4882 -2.341 -0.6462 -0.0125646 0.003114 0.00281917 -0.3575 -1.7167 -0.4742 -3.55623e-006 -1.89537e-006 2.77603e-006 -1.42 -1.8761 1.4223 -7.18883e-006 1.57948e-006 4.14291e-006 -1.1471 -3.4929 2.6334 -1.34543e-005 3.72355e-006 -3.7649e-006 -0.823 -2.3 1.6571 -2.80508e-006 3.02433e-006 6.10401e-006 -2.2603 21.606 7.4023 15.664 -25.4688 35.9231 -13.5187 -1.1334 -5.0155 -43.4133 -3.2695 -16.9058 0.0994 -28.0499 -0.2431 65.3408 -20.6679 29.837 -0.0679 -23.3996 -0.1402 -61.6734 12.2121 12.2712 -0.7932 -9.0691 2.5189 1.59028e-015 0 3.18055e-015 0.8272 -3.3923 0.5977 -7.3962e-007 -2.15277e-008 -1.44028e-006 0.565 -2.3158 0.4082 -3.18055e-015 6.36111e-015 -3.18055e-015 -0.916 -9.2044 0.2193 1.59028e-015 0 3.18055e-015 -0.0117 -4.1944 -0.0248 0.0129219 0.00231886 -9.06858e-005 -0.0071 -2.3249 -0.0142 1.59028e-015 9.54166e-015 -3.18055e-015 -0.6113 -8.7231 -2.0637 1.59028e-015 0 3.18055e-015 0.1927 -3.8059 -0.2383 0.0163366 0.00303802 -0.00087324 0.1091 -2.1688 -0.1362 7.95139e-015 -9.54166e-015 6.36111e-015 0.6151 -8.0947 -3.564 1.59028e-015 0 3.18055e-015 0.4882 -2.341 -0.6462 0.0145859 0.00368137 -0.0032672 0.3574 -1.7166 -0.4742 1.59028e-015 -6.36111e-015 6.36111e-015 1.4199 -1.8761 1.4221 1.59028e-015 0 3.18055e-015 1.1472 -3.4929 2.6336 -7.3962e-007 -2.15277e-008 -1.44028e-006 0.8229 -2.3 1.6571 -3.18055e-015 6.36111e-015 -3.18055e-015 -9.412 3.9771 -0.7758 -7.46385 -16.7447 -16.3928 -0.7531 -40.938 0 -169.642 81.8372 167.336 -3.55271e-015 -40.1986 1.77636e-015 20.3581 46.5569 -28.3502 -8.88179e-016 -4.4182 9.239 -3.33488e-006 -1.91461e-007 2.1454e-007 9.4119 3.9773 -0.7758 7.31955 -16.6572 16.2377 0.7532 -40.9383 0 170.336 81.9813 -167.975 0 -40.1986 0 -19.7914 45.6878 27.8496 1.77636e-015 -4.4182 9.239 1.04734e-005 -7.70996e-007 -1.55648e-006 
1.63311 30.2841 0.794673 -6.52618e-008 16.2601 -1.54917e-007 -2.22045e-016 8.7983 -4.7612 -0.11596 6.0942 -0.414845 0 8.0291 0.4195 -0.188865 12.1891 -0.824264 -2.22045e-016 9.9351 -2.2114 -0.188866 12.1892 -0.824267 2.498e-016 22.3885 -0.4656 10.5156 -10.205 1.66731 -0.0001 12.643 3.4389 -2.64776e-006 -4.96725 3.06286e-007 2.2603 21.606 7.4023 -17.9784 -24.1994 -42.6981 13.5163 -1.1332 -5.0146 44.6434 0.267314 20.8021 -0.0995 -28.05 -0.2431 -68.0419 -20.9025 -30.1566 0.0679 -23.3996 -0.1402 68.9103 13.7547 -14.9611 0.7932 -9.069 2.5189 -6.43343e-006 6.62703e-006 5.57253e-006 -0.8272 -3.3923 0.5977 7.26293e-008 3.91728e-007 3.30757e-006 -0.5649 -2.3158 0.4082 7.54798e-007 1.43635e-006 1.42948e-006 0.9159 -9.2044 0.2193 -6.43343e-006 6.62703e-006 5.57253e-006 0.0117 -4.1944 -0.0248 -0.0128114 0.00232596 8.34779e-005 0.0071 -2.3249 -0.0142 7.54617e-007 2.49969e-007 1.42951e-006 0.6113 -8.7231 -2.0637 -6.43343e-006 6.62703e-006 5.57253e-006 -0.1927 -3.8059 -0.2383 -0.016054 0.00298987 0.000855955 -0.1091 -2.1688 -0.1362 7.5457e-007 1.43666e-006 1.42953e-006 -0.6151 -8.0947 -3.5641 -6.43343e-006 6.62703e-006 5.57253e-006 -0.4882 -2.341 -0.6462 -0.012585 0.00312444 0.00283131 -0.3575 -1.7167 -0.4742 6.36111e-015 0 -6.36111e-015 -1.42 -1.8761 1.4223 -6.43343e-006 6.62703e-006 5.57253e-006 -1.1471 -3.4929 2.6334 7.26293e-008 3.91728e-007 3.30757e-006 -0.823 -2.3 1.6571 7.54798e-007 1.43635e-006 1.42948e-006 -2.2603 21.606 7.4023 15.8027 -25.1903 35.9791 -13.5187 -1.1334 -5.0155 -43.4133 -3.26954 -16.9058 0.0994 -28.0499 -0.2431 64.7311 -20.6057 29.5822 -0.0679 -23.3996 -0.1402 -61.2353 12.3787 12.2226 -0.7932 -9.0691 2.5189 -1.59028e-015 6.36111e-015 3.18055e-015 0.8272 -3.3923 0.5977 5.98001e-007 -2.43512e-006 3.3167e-006 0.565 -2.3158 0.4082 2.82922e-023 5.09666e-007 -3.18055e-015 -0.916 -9.2044 0.2193 -1.59028e-015 6.36111e-015 3.18055e-015 -0.0117 -4.1944 -0.0248 0.0129729 0.00231609 -8.67262e-005 -0.0071 -2.3249 -0.0142 -6.36111e-015 -6.36111e-015 3.18055e-015 -0.6113 -8.7231 -2.0637 -1.59028e-015 6.36111e-015 3.18055e-015 0.1927 -3.8059 -0.2383 0.0163281 0.00303046 -0.000873369 0.1091 -2.1688 -0.1362 0 1.47707e-006 -0 0.6151 -8.0947 -3.564 -1.59028e-015 6.36111e-015 3.18055e-015 0.4882 -2.341 -0.6462 0.0145443 0.00367063 -0.00325637 0.3574 -1.7166 -0.4742 1.59028e-015 3.18055e-015 -3.18055e-015 1.4199 -1.8761 1.4221 -1.59028e-015 6.36111e-015 3.18055e-015 1.1472 -3.4929 2.6336 5.98001e-007 -2.43512e-006 3.3167e-006 0.8229 -2.3 1.6571 2.82922e-023 5.09666e-007 -3.18055e-015 -9.412 3.9771 -0.7758 -7.55951 -17.7693 -16.5877 -0.7531 -40.938 8.88179e-016 -169.882 81.5251 167.561 1.77636e-015 -40.1986 -8.88178e-016 20.3708 46.5525 -28.366 8.88179e-016 -4.4182 9.239 -2.92179e-006 8.59372e-007 9.48975e-007 9.4119 3.9773 -0.7758 7.41486 -17.6823 16.4317 0.7532 -40.9383 8.88179e-016 170.552 81.6682 -168.175 0 -40.1986 -1.77636e-015 -19.8038 45.6833 27.8651 0 -4.4182 9.239 -3.80772e-007 4.95388e-006 -4.56718e-007 
1.63311 30.2657 0.542686 9.48455e-009 17.014 3.16264e-007 0 8.7983 -4.7612 -0.112191 5.82277 -0.417275 0 8.0291 0.4195 -0.182923 11.6463 -0.829503 0 9.9351 -2.2114 -0.182923 11.6463 -0.829506 8.32667e-017 22.3885 -0.4656 10.4592 -10.633 1.73224 -0.0001 12.643 3.4389 -1.30635e-006 -6.17264 1.77302e-006 2.2603 21.606 7.4023 -18.1145 -23.9145 -42.751 13.5163 -1.1332 -5.0146 44.6434 0.267248 20.8021 -0.0995 -28.05 -0.2431 -67.462 -20.8529 -29.9176 0.0679 -23.3996 -0.1402 68.4713 13.9589 -14.8615 0.7932 -9.06901 2.5189 2.87423e-006 3.28445e-006 -8.96679e-007 -0.8272 -3.3923 0.5977 3.01605e-006 2.75439e-006 7.61938e-006 -0.5649 -2.3158 0.4082 -9.54166e-015 -2.56745e-006 -6.36111e-015 0.9159 -9.20441 0.2193 2.87423e-006 3.28445e-006 -8.96679e-007 0.0117 -4.1944 -0.0248 -0.0128547 0.00233709 9.60526e-005 0.0071 -2.3249 -0.0142 3.18055e-015 -1.1865e-006 -0 0.6113 -8.7231 -2.0637 2.87423e-006 3.28445e-006 -8.96679e-007 -0.1927 -3.8059 -0.2383 -0.0160244 0.00300111 0.000859311 -0.1091 -2.1688 -0.1362 -3.05365e-007 -1.7105e-006 3.06791e-006 -0.6151 -8.0947 -3.5641 2.87423e-006 3.28445e-006 -8.96679e-007 -0.4882 -2.341 -0.6462 -0.0125803 0.00312801 0.00282957 -0.3575 -1.7167 -0.4742 -1.36596e-006 -8.5687e-007 3.75584e-006 -1.42 -1.8761 1.4223 2.87423e-006 3.28445e-006 -8.96679e-007 -1.1471 -3.4929 2.6334 3.01605e-006 2.75439e-006 7.61938e-006 -0.823 -2.3 1.6571 -9.54166e-015 -2.56745e-006 -6.36111e-015 -2.2603 21.606 7.4023 15.9407 -24.9116 36.0341 -13.5187 -1.1334 -5.0155 -43.4133 -3.26949 -16.9058 0.0994 -28.0499 -0.2431 64.1221 -20.5411 29.3282 -0.0679 -23.3996 -0.1402 -60.7967 12.5449 12.1727 -0.7932 -9.0691 2.5189 7.95139e-015 3.18055e-015 1.27222e-014 0.8272 -3.3923 0.5977 7.95139e-015 -3.18055e-015 3.18055e-015 0.565 -2.3158 0.4082 3.18055e-015 -3.18055e-015 9.54166e-015 -0.916 -9.2044 0.2193 7.95139e-015 3.18055e-015 1.27222e-014 -0.0117 -4.1944 -0.0248 0.0129421 0.00231382 -9.0181e-005 -0.0071 -2.3249 -0.0142 4.77083e-015 -3.18055e-015 3.18055e-015 -0.6113 -8.7231 -2.0637 7.95139e-015 3.18055e-015 1.27222e-014 0.1927 -3.8059 -0.2383 0.0163416 0.00303835 -0.000872797 0.1091 -2.1688 -0.1362 -3.18055e-015 0 -0 0.6151 -8.0947 -3.564 7.95139e-015 3.18055e-015 1.27222e-014 0.4882 -2.341 -0.6462 0.0145939 0.00368565 -0.00326642 0.3574 -1.7166 -0.4742 1.59028e-015 -6.36111e-015 -0 1.4199 -1.8761 1.4221 7.95139e-015 3.18055e-015 1.27222e-014 1.1472 -3.4929 2.6336 7.95139e-015 -3.18055e-015 3.18055e-015 0.8229 -2.3 1.6571 3.18055e-015 -3.18055e-015 9.54166e-015 -9.412 3.9771 -0.7758 -7.65884 -18.7934 -16.7854 -0.7531 -40.938 0 -170.107 81.2127 167.769 1.77636e-015 -40.1986 -8.88179e-016 20.3836 46.5482 -28.3819 0 -4.4182 9.239 4.50995e-007 -7.36513e-006 1.01587e-006 9.4119 3.9773 -0.7758 7.51384 -18.7066 16.6285 0.7532 -40.9383 8.88179e-016 170.752 81.355 -168.36 -3.55271e-015 -40.1986 0 -19.8162 45.6787 27.8806 1.77636e-015 -4.4182 9.239 1.76556e-031 -3.18055e-015 3.18055e-015 
